<svg xmlns="http://www.w3.org/2000/svg" xmlns:xlink="http://www.w3.org/1999/xlink" width="500" zoomAndPan="magnify" viewBox="0 0 375 374.999991" height="500" preserveAspectRatio="xMidYMid meet" version="1.0"><defs><g/><clipPath id="id1"><path d="M 122.074219 64.730469 L 252.574219 64.730469 L 252.574219 219 L 122.074219 219 Z M 122.074219 64.730469 " clip-rule="nonzero"/></clipPath></defs><g clip-path="url(#id1)"><path fill="#d4592f" d="M 186.535156 118.421875 C 182.585938 114.988281 177.988281 112.351562 173.105469 110.628906 C 173.425781 106.777344 173.164062 102.027344 171.273438 97.273438 C 170.789062 96.066406 169.492188 95.402344 168.234375 95.71875 C 168.234375 95.71875 164.726562 96.578125 160.496094 99.164062 C 160.441406 99.042969 160.386719 98.921875 160.332031 98.804688 C 158.914062 95.832031 156.871094 93.308594 154.105469 91.925781 C 153.105469 91.421875 151.902344 91.621094 151.109375 92.410156 C 151.109375 92.410156 141.3125 102.277344 138.9375 114.769531 C 129.433594 121.644531 122.496094 134.292969 122.496094 154.125 C 122.496094 191.136719 146.214844 206.257812 149.378906 208.109375 C 153.878906 212.464844 161.820312 215.511719 170.992188 216.992188 C 184.535156 219.1875 200.734375 218.078125 211.621094 213.707031 C 238.648438 202.867188 252.148438 176.605469 252.148438 154.285156 C 252.148438 135.507812 248.25 129.777344 244.539062 113.023438 C 237.511719 81.296875 250.84375 73.097656 250.84375 73.097656 C 251.71875 72.597656 252.222656 71.632812 252.140625 70.628906 C 252.058594 69.621094 251.402344 68.75 250.457031 68.402344 C 250.457031 68.402344 240.589844 64.71875 228.492188 65.007812 C 216.164062 65.300781 201.59375 69.667969 192.507812 85.808594 C 187.625 94.480469 186.296875 105.941406 186.535156 118.421875 Z M 195.667969 173.628906 C 195.636719 178.40625 195.304688 182.890625 194.527344 186.953125 C 193.261719 193.523438 190.824219 199.027344 186.75 203.050781 C 182.023438 207.71875 174.996094 210.484375 164.671875 210.304688 C 166.914062 210.9375 169.316406 211.457031 171.816406 211.859375 C 184.4375 213.902344 199.546875 212.953125 209.699219 208.882812 C 234.53125 198.914062 246.960938 174.796875 246.960938 154.285156 C 246.960938 136.011719 243.089844 130.453125 239.476562 114.152344 C 234.003906 89.453125 239.996094 77.296875 244.417969 72.03125 C 240.746094 71.117188 235.023438 70.054688 228.613281 70.207031 C 217.808594 70.464844 204.984375 74.21875 197.019531 88.367188 C 191.867188 97.519531 191.21875 110.058594 191.90625 123.496094 C 203.378906 133.859375 209.945312 133.65625 209.945312 133.65625 L 209.945312 133.664062 C 210.34375 133.546875 210.777344 133.523438 211.210938 133.617188 C 212.460938 133.890625 213.300781 135.027344 213.25 136.269531 C 213.292969 137.402344 213.167969 141.074219 210.339844 145.347656 C 207.929688 148.984375 203.421875 153.222656 194.835938 156.417969 C 195.332031 162.207031 195.675781 167.820312 195.667969 173.089844 C 195.675781 173.171875 195.679688 173.253906 195.683594 173.332031 C 195.683594 173.433594 195.675781 173.535156 195.667969 173.628906 Z M 177.761719 161.511719 C 153.984375 170.257812 145.375 187.421875 152.738281 203.722656 C 168.042969 206.71875 177.496094 204.894531 183.113281 199.347656 C 186.480469 196.015625 188.386719 191.40625 189.433594 185.972656 C 190.039062 182.828125 190.351562 179.414062 190.453125 175.804688 C 187.226562 175.417969 184.753906 174.28125 182.878906 172.78125 C 179.15625 169.796875 177.804688 165.257812 177.761719 161.511719 Z M 190.039062 152.546875 C 183.511719 153.328125 175.121094 152.996094 164.339844 150.679688 C 149.28125 147.441406 136.800781 157.785156 135.808594 172.027344 C 135.273438 179.726562 138.058594 188.464844 145.308594 196.90625 C 142.691406 179.996094 154.085938 163.253906 180.066406 155.242188 C 180.179688 155.199219 180.296875 155.164062 180.417969 155.136719 C 182.265625 154.574219 184.183594 154.058594 186.175781 153.589844 C 187.546875 153.265625 188.835938 152.914062 190.039062 152.546875 Z M 156.648438 103.578125 C 156.371094 102.714844 156.039062 101.859375 155.652344 101.046875 C 155.042969 99.769531 154.300781 98.582031 153.339844 97.675781 C 150.683594 100.773438 145.179688 108.082031 143.875 116.671875 C 143.761719 117.394531 143.359375 118.03125 142.753906 118.441406 C 133.894531 124.40625 127.683594 135.945312 127.683594 154.125 C 127.683594 161.859375 128.804688 168.550781 130.5625 174.296875 C 130.550781 173.410156 130.578125 172.53125 130.636719 171.664062 C 131.84375 154.292969 147.054688 141.644531 165.425781 145.59375 C 193.65625 151.660156 203.472656 143.335938 206.683594 138.558594 C 202.824219 137.714844 196.601562 134.957031 187.902344 126.894531 C 187.695312 126.75 187.507812 126.574219 187.347656 126.378906 C 186.5625 125.636719 185.757812 124.855469 184.9375 124.03125 C 180.757812 119.835938 175.539062 116.777344 169.964844 115.0625 C 169.945312 115.058594 169.921875 115.058594 169.898438 115.054688 C 169.632812 115.011719 169.382812 114.933594 169.152344 114.824219 C 166.367188 114.039062 163.496094 113.585938 160.632812 113.496094 C 159.328125 113.457031 158.257812 112.449219 158.132812 111.144531 C 157.953125 109.285156 157.605469 106.785156 156.878906 104.316406 C 156.761719 104.078125 156.6875 103.828125 156.648438 103.578125 Z M 189.769531 158.042969 C 188.988281 158.253906 188.191406 158.457031 187.363281 158.652344 C 185.867188 159.003906 184.417969 159.386719 183.011719 159.792969 C 182.480469 162.222656 183.082031 166.285156 186.117188 168.714844 C 187.226562 169.601562 188.660156 170.25 190.472656 170.550781 C 190.394531 166.542969 190.125 162.347656 189.769531 158.042969 Z M 168.007812 109.1875 C 168.121094 106.878906 167.960938 104.25 167.238281 101.554688 C 165.910156 102.097656 164.121094 102.953125 162.214844 104.230469 C 162.578125 105.691406 162.839844 107.125 163.027344 108.429688 C 164.699219 108.578125 166.359375 108.832031 168.007812 109.1875 Z M 168.007812 109.1875 " fill-opacity="1" fill-rule="evenodd"/></g><g fill="#d4592f" fill-opacity="1"><g transform="translate(66.372155, 248.849869)"><g><path d="M 15.109375 -17.234375 L 15.75 -12.515625 L 14.46875 -12.359375 L 13.234375 -15.65625 C 13.078125 -15.695312 12.894531 -15.722656 12.6875 -15.734375 C 12.488281 -15.742188 12.3125 -15.75 12.15625 -15.75 L 11.109375 -15.75 C 10.910156 -15.75 10.644531 -15.75 10.3125 -15.75 C 9.988281 -15.75 9.691406 -15.738281 9.421875 -15.71875 C 9.421875 -15.5625 9.414062 -15.195312 9.40625 -14.625 C 9.394531 -14.050781 9.390625 -13.382812 9.390625 -12.625 C 9.390625 -11.863281 9.390625 -11.132812 9.390625 -10.4375 L 9.390625 -6.5 C 9.390625 -5.28125 9.398438 -4.21875 9.421875 -3.3125 C 9.441406 -2.40625 9.453125 -1.804688 9.453125 -1.515625 L 11.921875 -1.171875 L 11.84375 0 L 4.40625 0 L 4.34375 -1.171875 L 6.796875 -1.515625 C 6.796875 -1.804688 6.804688 -2.40625 6.828125 -3.3125 C 6.847656 -4.21875 6.859375 -5.28125 6.859375 -6.5 L 6.859375 -10.4375 C 6.859375 -11.132812 6.859375 -11.863281 6.859375 -12.625 C 6.859375 -13.382812 6.859375 -14.050781 6.859375 -14.625 C 6.859375 -15.195312 6.847656 -15.5625 6.828125 -15.71875 C 6.566406 -15.738281 6.269531 -15.75 5.9375 -15.75 C 5.613281 -15.75 5.351562 -15.75 5.15625 -15.75 L 4.03125 -15.75 C 3.875 -15.75 3.703125 -15.742188 3.515625 -15.734375 C 3.328125 -15.722656 3.144531 -15.695312 2.96875 -15.65625 L 1.78125 -12.328125 L 0.46875 -12.515625 L 1.109375 -17.234375 C 1.316406 -17.210938 1.539062 -17.195312 1.78125 -17.1875 C 2.03125 -17.175781 2.273438 -17.160156 2.515625 -17.140625 C 2.765625 -17.117188 3.003906 -17.109375 3.234375 -17.109375 C 3.472656 -17.109375 3.707031 -17.109375 3.9375 -17.109375 L 12.28125 -17.109375 C 12.488281 -17.109375 12.710938 -17.109375 12.953125 -17.109375 C 13.203125 -17.109375 13.441406 -17.117188 13.671875 -17.140625 C 13.910156 -17.160156 14.148438 -17.175781 14.390625 -17.1875 C 14.628906 -17.195312 14.867188 -17.210938 15.109375 -17.234375 Z M 15.109375 -17.234375 "/></g></g></g><g fill="#d4592f" fill-opacity="1"><g transform="translate(90.076178, 248.849869)"><g><path d="M 11.921875 0 L 11.875 -1.109375 L 13.640625 -1.515625 C 13.679688 -1.597656 13.71875 -1.796875 13.75 -2.109375 C 13.78125 -2.429688 13.800781 -2.894531 13.8125 -3.5 C 13.820312 -4.101562 13.828125 -4.867188 13.828125 -5.796875 L 13.828125 -11.28125 C 13.828125 -12.257812 13.820312 -13.046875 13.8125 -13.640625 C 13.800781 -14.242188 13.78125 -14.707031 13.75 -15.03125 C 13.71875 -15.351562 13.679688 -15.539062 13.640625 -15.59375 L 11.875 -16.015625 L 11.921875 -17.109375 L 18.203125 -17.109375 L 18.28125 -16.015625 L 16.46875 -15.59375 C 16.4375 -15.539062 16.410156 -15.351562 16.390625 -15.03125 C 16.367188 -14.707031 16.347656 -14.242188 16.328125 -13.640625 C 16.304688 -13.046875 16.296875 -12.257812 16.296875 -11.28125 L 16.296875 -5.796875 C 16.296875 -4.867188 16.304688 -4.101562 16.328125 -3.5 C 16.347656 -2.894531 16.367188 -2.429688 16.390625 -2.109375 C 16.410156 -1.796875 16.4375 -1.597656 16.46875 -1.515625 L 18.28125 -1.109375 L 18.203125 0 Z M 1.421875 0 L 1.34375 -1.109375 L 3.15625 -1.515625 C 3.1875 -1.609375 3.207031 -1.832031 3.21875 -2.1875 C 3.226562 -2.539062 3.238281 -3.015625 3.25 -3.609375 C 3.257812 -4.210938 3.265625 -4.941406 3.265625 -5.796875 L 3.265625 -11.28125 C 3.265625 -12.15625 3.257812 -12.898438 3.25 -13.515625 C 3.238281 -14.128906 3.226562 -14.613281 3.21875 -14.96875 C 3.207031 -15.332031 3.1875 -15.539062 3.15625 -15.59375 L 1.34375 -16.015625 L 1.421875 -17.109375 L 7.640625 -17.109375 L 7.703125 -16.015625 L 5.921875 -15.59375 C 5.878906 -15.539062 5.84375 -15.351562 5.8125 -15.03125 C 5.789062 -14.707031 5.773438 -14.242188 5.765625 -13.640625 C 5.753906 -13.046875 5.75 -12.257812 5.75 -11.28125 L 5.75 -5.796875 C 5.75 -4.867188 5.753906 -4.101562 5.765625 -3.5 C 5.773438 -2.894531 5.789062 -2.429688 5.8125 -2.109375 C 5.84375 -1.796875 5.878906 -1.597656 5.921875 -1.515625 L 7.703125 -1.109375 L 7.640625 0 Z M 5.390625 -7.9375 L 5.390625 -9.65625 C 5.765625 -9.632812 6.328125 -9.613281 7.078125 -9.59375 C 7.835938 -9.570312 8.753906 -9.5625 9.828125 -9.5625 C 10.898438 -9.5625 11.800781 -9.570312 12.53125 -9.59375 C 13.257812 -9.613281 13.796875 -9.632812 14.140625 -9.65625 L 14.140625 -7.9375 C 13.710938 -7.988281 13.15625 -8.019531 12.46875 -8.03125 C 11.789062 -8.039062 10.910156 -8.046875 9.828125 -8.046875 C 8.703125 -8.046875 7.785156 -8.039062 7.078125 -8.03125 C 6.378906 -8.019531 5.816406 -7.988281 5.390625 -7.9375 Z M 5.390625 -7.9375 "/></g></g></g><g fill="#d4592f" fill-opacity="1"><g transform="translate(117.133168, 248.849869)"><g><path d="M 14.171875 0.140625 C 13.609375 0.0859375 13.109375 0.0507812 12.671875 0.03125 C 12.234375 0.0078125 11.820312 0 11.4375 0 L 1.421875 0 L 1.34375 -1.109375 L 3.15625 -1.515625 C 3.164062 -1.609375 3.179688 -1.832031 3.203125 -2.1875 C 3.222656 -2.539062 3.238281 -3.015625 3.25 -3.609375 C 3.257812 -4.210938 3.265625 -4.941406 3.265625 -5.796875 L 3.265625 -11.28125 C 3.265625 -12.15625 3.257812 -12.898438 3.25 -13.515625 C 3.238281 -14.128906 3.222656 -14.609375 3.203125 -14.953125 C 3.179688 -15.304688 3.164062 -15.519531 3.15625 -15.59375 L 1.34375 -16.015625 L 1.421875 -17.109375 L 10.78125 -17.109375 C 11.0625 -17.109375 11.351562 -17.109375 11.65625 -17.109375 C 11.96875 -17.109375 12.296875 -17.125 12.640625 -17.15625 C 12.984375 -17.1875 13.335938 -17.210938 13.703125 -17.234375 L 14.28125 -13.390625 L 12.96875 -13.1875 L 12.015625 -15.625 C 11.859375 -15.664062 11.679688 -15.691406 11.484375 -15.703125 C 11.296875 -15.710938 11.09375 -15.71875 10.875 -15.71875 L 7.578125 -15.71875 C 7.210938 -15.71875 6.890625 -15.710938 6.609375 -15.703125 C 6.328125 -15.691406 6.050781 -15.664062 5.78125 -15.625 C 5.78125 -15.550781 5.773438 -15.332031 5.765625 -14.96875 C 5.753906 -14.613281 5.742188 -14.203125 5.734375 -13.734375 C 5.722656 -13.265625 5.71875 -12.796875 5.71875 -12.328125 L 5.71875 -4.46875 C 5.71875 -4.070312 5.722656 -3.675781 5.734375 -3.28125 C 5.742188 -2.882812 5.753906 -2.535156 5.765625 -2.234375 C 5.773438 -1.929688 5.78125 -1.710938 5.78125 -1.578125 C 6.070312 -1.554688 6.359375 -1.535156 6.640625 -1.515625 C 6.929688 -1.492188 7.265625 -1.484375 7.640625 -1.484375 L 10.46875 -1.484375 C 10.894531 -1.484375 11.242188 -1.488281 11.515625 -1.5 C 11.785156 -1.507812 12 -1.523438 12.15625 -1.546875 C 12.3125 -1.566406 12.4375 -1.585938 12.53125 -1.609375 L 14.0625 -4.375 L 15.359375 -4.109375 Z M 10.9375 -5.984375 L 10.578125 -7.953125 C 10.484375 -7.992188 10.316406 -8.023438 10.078125 -8.046875 C 9.847656 -8.066406 9.570312 -8.078125 9.25 -8.078125 L 7.03125 -8.078125 C 6.769531 -8.078125 6.488281 -8.066406 6.1875 -8.046875 C 5.894531 -8.023438 5.59375 -8.003906 5.28125 -7.984375 L 5.28125 -9.59375 C 5.59375 -9.570312 5.894531 -9.554688 6.1875 -9.546875 C 6.488281 -9.535156 6.769531 -9.53125 7.03125 -9.53125 L 9.25 -9.53125 C 9.570312 -9.53125 9.847656 -9.535156 10.078125 -9.546875 C 10.316406 -9.554688 10.484375 -9.582031 10.578125 -9.625 L 10.9375 -11.640625 L 12.1875 -11.640625 L 12.1875 -5.984375 Z M 10.9375 -5.984375 "/></g></g></g><g fill="#d4592f" fill-opacity="1"><g transform="translate(140.808035, 248.849869)"><g/></g></g><g fill="#d4592f" fill-opacity="1"><g transform="translate(153.870031, 248.849869)"><g><path d="M 1.515625 0 L 1.453125 -1.109375 L 3.234375 -1.546875 C 3.234375 -1.679688 3.238281 -1.890625 3.25 -2.171875 C 3.257812 -2.453125 3.265625 -2.785156 3.265625 -3.171875 C 3.265625 -3.566406 3.269531 -3.988281 3.28125 -4.4375 C 3.289062 -4.894531 3.296875 -5.347656 3.296875 -5.796875 L 3.296875 -11.28125 C 3.296875 -12.175781 3.289062 -12.929688 3.28125 -13.546875 C 3.269531 -14.160156 3.253906 -14.632812 3.234375 -14.96875 C 3.210938 -15.3125 3.191406 -15.519531 3.171875 -15.59375 L 1.375 -16.015625 L 1.453125 -17.109375 L 7.84375 -17.109375 C 9.664062 -17.109375 11.054688 -16.753906 12.015625 -16.046875 C 12.984375 -15.335938 13.46875 -14.296875 13.46875 -12.921875 C 13.46875 -11.960938 13.203125 -11.109375 12.671875 -10.359375 C 12.148438 -9.617188 11.414062 -9.03125 10.46875 -8.59375 C 9.53125 -8.164062 8.460938 -7.953125 7.265625 -7.953125 L 5.390625 -7.953125 L 5.390625 -9.265625 L 7.0625 -9.265625 C 8.257812 -9.265625 9.191406 -9.566406 9.859375 -10.171875 C 10.535156 -10.773438 10.875 -11.613281 10.875 -12.6875 C 10.875 -13.71875 10.582031 -14.5 10 -15.03125 C 9.414062 -15.5625 8.582031 -15.828125 7.5 -15.828125 L 5.796875 -15.828125 C 5.785156 -15.796875 5.773438 -15.71875 5.765625 -15.59375 C 5.753906 -15.476562 5.75 -15.285156 5.75 -15.015625 C 5.75 -14.742188 5.75 -14.34375 5.75 -13.8125 C 5.75 -13.289062 5.75 -12.59375 5.75 -11.71875 L 5.75 -5.796875 C 5.75 -4.960938 5.753906 -4.265625 5.765625 -3.703125 C 5.773438 -3.140625 5.789062 -2.6875 5.8125 -2.34375 C 5.84375 -2.007812 5.867188 -1.742188 5.890625 -1.546875 L 7.609375 -1.109375 L 7.515625 0 Z M 15.34375 0.296875 C 14.488281 0.296875 13.726562 0.132812 13.0625 -0.1875 C 12.40625 -0.507812 11.769531 -1.046875 11.15625 -1.796875 C 10.539062 -2.554688 9.863281 -3.570312 9.125 -4.84375 L 7.140625 -8.453125 L 9.328125 -8.953125 L 12.484375 -4.3125 C 13.023438 -3.519531 13.515625 -2.882812 13.953125 -2.40625 C 14.390625 -1.925781 14.820312 -1.566406 15.25 -1.328125 C 15.675781 -1.097656 16.144531 -0.9375 16.65625 -0.84375 L 16.625 0.171875 C 16.425781 0.210938 16.210938 0.242188 15.984375 0.265625 C 15.765625 0.285156 15.550781 0.296875 15.34375 0.296875 Z M 15.34375 0.296875 "/></g></g></g><g fill="#d4592f" fill-opacity="1"><g transform="translate(177.865616, 248.849869)"><g><path d="M 14.171875 0.140625 C 13.609375 0.0859375 13.109375 0.0507812 12.671875 0.03125 C 12.234375 0.0078125 11.820312 0 11.4375 0 L 1.421875 0 L 1.34375 -1.109375 L 3.15625 -1.515625 C 3.164062 -1.609375 3.179688 -1.832031 3.203125 -2.1875 C 3.222656 -2.539062 3.238281 -3.015625 3.25 -3.609375 C 3.257812 -4.210938 3.265625 -4.941406 3.265625 -5.796875 L 3.265625 -11.28125 C 3.265625 -12.15625 3.257812 -12.898438 3.25 -13.515625 C 3.238281 -14.128906 3.222656 -14.609375 3.203125 -14.953125 C 3.179688 -15.304688 3.164062 -15.519531 3.15625 -15.59375 L 1.34375 -16.015625 L 1.421875 -17.109375 L 10.78125 -17.109375 C 11.0625 -17.109375 11.351562 -17.109375 11.65625 -17.109375 C 11.96875 -17.109375 12.296875 -17.125 12.640625 -17.15625 C 12.984375 -17.1875 13.335938 -17.210938 13.703125 -17.234375 L 14.28125 -13.390625 L 12.96875 -13.1875 L 12.015625 -15.625 C 11.859375 -15.664062 11.679688 -15.691406 11.484375 -15.703125 C 11.296875 -15.710938 11.09375 -15.71875 10.875 -15.71875 L 7.578125 -15.71875 C 7.210938 -15.71875 6.890625 -15.710938 6.609375 -15.703125 C 6.328125 -15.691406 6.050781 -15.664062 5.78125 -15.625 C 5.78125 -15.550781 5.773438 -15.332031 5.765625 -14.96875 C 5.753906 -14.613281 5.742188 -14.203125 5.734375 -13.734375 C 5.722656 -13.265625 5.71875 -12.796875 5.71875 -12.328125 L 5.71875 -4.46875 C 5.71875 -4.070312 5.722656 -3.675781 5.734375 -3.28125 C 5.742188 -2.882812 5.753906 -2.535156 5.765625 -2.234375 C 5.773438 -1.929688 5.78125 -1.710938 5.78125 -1.578125 C 6.070312 -1.554688 6.359375 -1.535156 6.640625 -1.515625 C 6.929688 -1.492188 7.265625 -1.484375 7.640625 -1.484375 L 10.46875 -1.484375 C 10.894531 -1.484375 11.242188 -1.488281 11.515625 -1.5 C 11.785156 -1.507812 12 -1.523438 12.15625 -1.546875 C 12.3125 -1.566406 12.4375 -1.585938 12.53125 -1.609375 L 14.0625 -4.375 L 15.359375 -4.109375 Z M 10.9375 -5.984375 L 10.578125 -7.953125 C 10.484375 -7.992188 10.316406 -8.023438 10.078125 -8.046875 C 9.847656 -8.066406 9.570312 -8.078125 9.25 -8.078125 L 7.03125 -8.078125 C 6.769531 -8.078125 6.488281 -8.066406 6.1875 -8.046875 C 5.894531 -8.023438 5.59375 -8.003906 5.28125 -7.984375 L 5.28125 -9.59375 C 5.59375 -9.570312 5.894531 -9.554688 6.1875 -9.546875 C 6.488281 -9.535156 6.769531 -9.53125 7.03125 -9.53125 L 9.25 -9.53125 C 9.570312 -9.53125 9.847656 -9.535156 10.078125 -9.546875 C 10.316406 -9.554688 10.484375 -9.582031 10.578125 -9.625 L 10.9375 -11.640625 L 12.1875 -11.640625 L 12.1875 -5.984375 Z M 10.9375 -5.984375 "/></g></g></g><g fill="#d4592f" fill-opacity="1"><g transform="translate(201.540483, 248.849869)"><g><path d="M 1.421875 -17.109375 L 8.484375 -17.109375 C 11.554688 -17.109375 13.953125 -16.375 15.671875 -14.90625 C 17.390625 -13.445312 18.25 -11.394531 18.25 -8.75 C 18.25 -7.039062 17.847656 -5.523438 17.046875 -4.203125 C 16.253906 -2.878906 15.148438 -1.847656 13.734375 -1.109375 C 12.316406 -0.367188 10.679688 0 8.828125 0 L 1.421875 0 L 1.375 -1.109375 L 3.15625 -1.515625 C 3.1875 -1.691406 3.21875 -2.1875 3.25 -3 C 3.28125 -3.820312 3.296875 -4.753906 3.296875 -5.796875 L 3.296875 -11.28125 C 3.296875 -12.445312 3.28125 -13.425781 3.25 -14.21875 C 3.21875 -15.019531 3.1875 -15.476562 3.15625 -15.59375 L 1.375 -16.015625 Z M 5.828125 -15.546875 C 5.828125 -15.347656 5.820312 -15.097656 5.8125 -14.796875 C 5.800781 -14.492188 5.789062 -14.070312 5.78125 -13.53125 C 5.78125 -12.988281 5.78125 -12.238281 5.78125 -11.28125 L 5.78125 -5.796875 C 5.78125 -5.210938 5.78125 -4.660156 5.78125 -4.140625 C 5.789062 -3.628906 5.8125 -3.171875 5.84375 -2.765625 C 5.875 -2.359375 5.898438 -2.019531 5.921875 -1.75 C 6.546875 -1.675781 7.101562 -1.613281 7.59375 -1.5625 C 8.09375 -1.507812 8.578125 -1.484375 9.046875 -1.484375 C 11.097656 -1.484375 12.660156 -2.03125 13.734375 -3.125 C 14.804688 -4.226562 15.34375 -5.820312 15.34375 -7.90625 C 15.34375 -9.164062 15.1875 -10.28125 14.875 -11.25 C 14.5625 -12.226562 14.097656 -13.050781 13.484375 -13.71875 C 12.867188 -14.382812 12.117188 -14.890625 11.234375 -15.234375 C 10.359375 -15.578125 9.335938 -15.75 8.171875 -15.75 C 7.816406 -15.75 7.441406 -15.734375 7.046875 -15.703125 C 6.660156 -15.671875 6.253906 -15.617188 5.828125 -15.546875 Z M 5.828125 -15.546875 "/></g></g></g><g fill="#d4592f" fill-opacity="1"><g transform="translate(228.889036, 248.849869)"><g/></g></g><g fill="#d4592f" fill-opacity="1"><g transform="translate(241.951031, 248.849869)"><g><path d="M 1.578125 0 L 1.515625 -1.109375 L 3.171875 -1.515625 C 3.191406 -1.597656 3.207031 -1.789062 3.21875 -2.09375 C 3.226562 -2.40625 3.238281 -2.859375 3.25 -3.453125 C 3.257812 -4.046875 3.265625 -4.78125 3.265625 -5.65625 L 3.296875 -11.8125 C 3.296875 -12.582031 3.289062 -13.238281 3.28125 -13.78125 C 3.269531 -14.332031 3.257812 -14.757812 3.25 -15.0625 C 3.238281 -15.363281 3.222656 -15.539062 3.203125 -15.59375 L 1.40625 -16.015625 L 1.484375 -17.109375 L 10.703125 -17.109375 C 10.992188 -17.109375 11.285156 -17.109375 11.578125 -17.109375 C 11.867188 -17.109375 12.179688 -17.125 12.515625 -17.15625 C 12.859375 -17.1875 13.226562 -17.210938 13.625 -17.234375 L 14.234375 -13.390625 L 12.890625 -13.1875 L 11.890625 -15.625 C 11.773438 -15.664062 11.617188 -15.691406 11.421875 -15.703125 C 11.234375 -15.710938 11.03125 -15.71875 10.8125 -15.71875 L 7.578125 -15.71875 C 7.285156 -15.71875 6.957031 -15.710938 6.59375 -15.703125 C 6.238281 -15.691406 5.957031 -15.664062 5.75 -15.625 C 5.75 -15.550781 5.742188 -15.40625 5.734375 -15.1875 C 5.722656 -14.976562 5.71875 -14.710938 5.71875 -14.390625 C 5.71875 -14.066406 5.71875 -13.695312 5.71875 -13.28125 C 5.71875 -12.863281 5.71875 -12.429688 5.71875 -11.984375 L 5.75 -5.625 C 5.75 -4.695312 5.753906 -3.941406 5.765625 -3.359375 C 5.785156 -2.785156 5.800781 -2.351562 5.8125 -2.0625 C 5.820312 -1.78125 5.835938 -1.597656 5.859375 -1.515625 L 8.21875 -1.171875 L 8.171875 0 Z M 10.84375 -5.75 L 10.46875 -7.84375 C 10.351562 -7.882812 10.171875 -7.910156 9.921875 -7.921875 C 9.679688 -7.941406 9.394531 -7.953125 9.0625 -7.953125 L 6.625 -7.953125 C 6.40625 -7.953125 6.175781 -7.945312 5.9375 -7.9375 C 5.707031 -7.9375 5.429688 -7.925781 5.109375 -7.90625 L 5.109375 -9.5 C 5.335938 -9.488281 5.582031 -9.472656 5.84375 -9.453125 C 6.101562 -9.429688 6.363281 -9.421875 6.625 -9.421875 L 9.0625 -9.421875 C 9.457031 -9.421875 9.765625 -9.429688 9.984375 -9.453125 C 10.210938 -9.472656 10.375 -9.5 10.46875 -9.53125 L 10.84375 -11.515625 L 12.09375 -11.515625 L 12.09375 -5.75 Z M 10.84375 -5.75 "/></g></g></g><g fill="#d4592f" fill-opacity="1"><g transform="translate(264.168086, 248.849869)"><g><path d="M 10.171875 0.265625 C 8.484375 0.265625 6.984375 -0.101562 5.671875 -0.84375 C 4.359375 -1.582031 3.332031 -2.613281 2.59375 -3.9375 C 1.851562 -5.257812 1.484375 -6.773438 1.484375 -8.484375 C 1.484375 -10.191406 1.859375 -11.71875 2.609375 -13.0625 C 3.359375 -14.40625 4.398438 -15.457031 5.734375 -16.21875 C 7.066406 -16.988281 8.566406 -17.375 10.234375 -17.375 C 11.867188 -17.375 13.304688 -17.003906 14.546875 -16.265625 C 15.796875 -15.523438 16.773438 -14.503906 17.484375 -13.203125 C 18.191406 -11.898438 18.546875 -10.394531 18.546875 -8.6875 C 18.546875 -7.382812 18.320312 -6.1875 17.875 -5.09375 C 17.425781 -4.007812 16.8125 -3.0625 16.03125 -2.25 C 15.257812 -1.445312 14.375 -0.828125 13.375 -0.390625 C 12.375 0.046875 11.304688 0.265625 10.171875 0.265625 Z M 10.4375 -1.3125 C 11.507812 -1.3125 12.425781 -1.582031 13.1875 -2.125 C 13.957031 -2.664062 14.550781 -3.4375 14.96875 -4.4375 C 15.382812 -5.445312 15.59375 -6.628906 15.59375 -7.984375 C 15.59375 -9.566406 15.347656 -10.945312 14.859375 -12.125 C 14.378906 -13.3125 13.71875 -14.238281 12.875 -14.90625 C 12.03125 -15.582031 11.035156 -15.921875 9.890625 -15.921875 C 8.234375 -15.921875 6.921875 -15.300781 5.953125 -14.0625 C 4.992188 -12.832031 4.515625 -11.160156 4.515625 -9.046875 C 4.515625 -7.523438 4.765625 -6.1875 5.265625 -5.03125 C 5.773438 -3.875 6.476562 -2.960938 7.375 -2.296875 C 8.269531 -1.640625 9.289062 -1.3125 10.4375 -1.3125 Z M 10.4375 -1.3125 "/></g></g></g><g fill="#d4592f" fill-opacity="1"><g transform="translate(291.633264, 248.849869)"><g><path d="M 16.796875 0 L 10.5 0 L 10.4375 -1.109375 L 12.21875 -1.546875 L 8.078125 -7.375 L 7.140625 -8.609375 L 2.09375 -15.59375 L 0.609375 -16.015625 L 0.703125 -17.109375 L 7.03125 -17.109375 L 7.078125 -16.015625 L 5.3125 -15.59375 L 8.8125 -10.703125 L 9.6875 -9.484375 L 15.390625 -1.546875 L 16.890625 -1.109375 Z M 12.3125 -15.59375 L 10.265625 -16.015625 L 10.328125 -17.109375 L 15.75 -17.109375 L 15.796875 -16.015625 L 14.3125 -15.59375 L 9.6875 -9.484375 L 8.078125 -7.375 L 3.9375 -1.546875 L 5.984375 -1.109375 L 5.921875 0 L 0.5 0 L 0.4375 -1.109375 L 1.921875 -1.546875 L 7.140625 -8.609375 L 8.8125 -10.703125 Z M 12.3125 -15.59375 "/></g></g></g><g fill="#a65e45" fill-opacity="1"><g transform="translate(107.803737, 271.917231)"><g><path d="M 0.15625 0 L 0.25 -0.546875 L 1.109375 -0.75 C 1.160156 -0.882812 1.207031 -1.050781 1.25 -1.25 C 1.300781 -1.445312 1.351562 -1.679688 1.40625 -1.953125 C 1.46875 -2.222656 1.535156 -2.523438 1.609375 -2.859375 L 2.203125 -5.625 C 2.335938 -6.238281 2.4375 -6.722656 2.5 -7.078125 C 2.5625 -7.429688 2.597656 -7.675781 2.609375 -7.8125 L 1.765625 -8.015625 L 1.90625 -8.546875 L 4.78125 -8.546875 C 5.65625 -8.546875 6.328125 -8.367188 6.796875 -8.015625 C 7.273438 -7.660156 7.515625 -7.160156 7.515625 -6.515625 C 7.515625 -6.078125 7.421875 -5.671875 7.234375 -5.296875 C 7.054688 -4.921875 6.800781 -4.59375 6.46875 -4.3125 C 6.144531 -4.039062 5.765625 -3.828125 5.328125 -3.671875 C 4.890625 -3.515625 4.414062 -3.4375 3.90625 -3.4375 C 3.707031 -3.4375 3.515625 -3.445312 3.328125 -3.46875 C 3.148438 -3.5 2.953125 -3.535156 2.734375 -3.578125 L 2.921875 -4.3125 C 3.117188 -4.25 3.296875 -4.203125 3.453125 -4.171875 C 3.617188 -4.148438 3.789062 -4.140625 3.96875 -4.140625 C 4.6875 -4.140625 5.242188 -4.335938 5.640625 -4.734375 C 6.035156 -5.128906 6.234375 -5.679688 6.234375 -6.390625 C 6.234375 -6.890625 6.085938 -7.269531 5.796875 -7.53125 C 5.503906 -7.789062 5.082031 -7.921875 4.53125 -7.921875 L 3.921875 -7.921875 C 3.898438 -7.859375 3.863281 -7.703125 3.8125 -7.453125 C 3.757812 -7.210938 3.695312 -6.929688 3.625 -6.609375 C 3.550781 -6.285156 3.472656 -5.957031 3.390625 -5.625 L 2.828125 -2.859375 C 2.691406 -2.234375 2.59375 -1.757812 2.53125 -1.4375 C 2.476562 -1.125 2.441406 -0.894531 2.421875 -0.75 L 3.5625 -0.5625 L 3.40625 0 Z M 0.15625 0 "/></g></g></g><g fill="#a65e45" fill-opacity="1"><g transform="translate(121.559291, 271.917231)"><g><path d="M 2.71875 -3.96875 L 2.921875 -4.828125 C 3.191406 -4.816406 3.515625 -4.804688 3.890625 -4.796875 C 4.265625 -4.785156 4.71875 -4.78125 5.25 -4.78125 C 5.789062 -4.78125 6.25 -4.785156 6.625 -4.796875 C 7.007812 -4.804688 7.332031 -4.816406 7.59375 -4.828125 L 7.421875 -3.96875 C 7.117188 -3.988281 6.796875 -4 6.453125 -4 C 6.109375 -4.007812 5.65625 -4.015625 5.09375 -4.015625 C 4.53125 -4.015625 4.070312 -4.007812 3.71875 -4 C 3.363281 -4 3.03125 -3.988281 2.71875 -3.96875 Z M 0.078125 0 L 0.15625 -0.546875 L 1.09375 -0.75 C 1.125 -0.84375 1.15625 -0.972656 1.1875 -1.140625 C 1.226562 -1.304688 1.28125 -1.523438 1.34375 -1.796875 C 1.40625 -2.078125 1.488281 -2.429688 1.59375 -2.859375 L 2.171875 -5.625 C 2.316406 -6.28125 2.414062 -6.773438 2.46875 -7.109375 C 2.53125 -7.441406 2.566406 -7.675781 2.578125 -7.8125 L 1.734375 -8.015625 L 1.875 -8.546875 L 4.9375 -8.546875 L 4.859375 -8.015625 L 3.90625 -7.8125 C 3.875 -7.6875 3.8125 -7.453125 3.71875 -7.109375 C 3.625 -6.765625 3.507812 -6.269531 3.375 -5.625 L 2.796875 -2.859375 C 2.703125 -2.390625 2.625 -2.015625 2.5625 -1.734375 C 2.507812 -1.460938 2.472656 -1.253906 2.453125 -1.109375 C 2.441406 -0.960938 2.429688 -0.84375 2.421875 -0.75 L 3.265625 -0.546875 L 3.125 0 Z M 5.359375 0 L 5.453125 -0.546875 L 6.375 -0.75 C 6.40625 -0.84375 6.441406 -0.972656 6.484375 -1.140625 C 6.523438 -1.304688 6.578125 -1.523438 6.640625 -1.796875 C 6.703125 -2.078125 6.78125 -2.429688 6.875 -2.859375 L 7.46875 -5.625 C 7.601562 -6.28125 7.695312 -6.773438 7.75 -7.109375 C 7.8125 -7.441406 7.847656 -7.675781 7.859375 -7.8125 L 7.015625 -8.015625 L 7.15625 -8.546875 L 10.21875 -8.546875 L 10.125 -8.015625 L 9.1875 -7.8125 C 9.164062 -7.6875 9.109375 -7.453125 9.015625 -7.109375 C 8.921875 -6.765625 8.800781 -6.269531 8.65625 -5.625 L 8.078125 -2.859375 C 7.972656 -2.390625 7.894531 -2.015625 7.84375 -1.734375 C 7.800781 -1.460938 7.765625 -1.253906 7.734375 -1.109375 C 7.710938 -0.960938 7.695312 -0.84375 7.6875 -0.75 L 8.546875 -0.546875 L 8.390625 0 Z M 5.359375 0 "/></g></g></g><g fill="#a65e45" fill-opacity="1"><g transform="translate(137.615938, 271.917231)"><g><path d="M 4.515625 0.125 C 3.773438 0.125 3.132812 -0.015625 2.59375 -0.296875 C 2.050781 -0.585938 1.632812 -0.988281 1.34375 -1.5 C 1.050781 -2.019531 0.90625 -2.632812 0.90625 -3.34375 C 0.90625 -4.0625 1.039062 -4.738281 1.3125 -5.375 C 1.582031 -6.019531 1.957031 -6.585938 2.4375 -7.078125 C 2.914062 -7.578125 3.46875 -7.96875 4.09375 -8.25 C 4.71875 -8.539062 5.382812 -8.6875 6.09375 -8.6875 C 6.8125 -8.6875 7.4375 -8.546875 7.96875 -8.265625 C 8.5 -7.992188 8.898438 -7.597656 9.171875 -7.078125 C 9.453125 -6.566406 9.59375 -5.96875 9.59375 -5.28125 C 9.59375 -4.5625 9.453125 -3.878906 9.171875 -3.234375 C 8.898438 -2.585938 8.523438 -2.007812 8.046875 -1.5 C 7.578125 -1 7.035156 -0.601562 6.421875 -0.3125 C 5.816406 -0.0195312 5.179688 0.125 4.515625 0.125 Z M 4.765625 -0.640625 C 5.410156 -0.640625 5.984375 -0.835938 6.484375 -1.234375 C 6.992188 -1.640625 7.394531 -2.1875 7.6875 -2.875 C 7.988281 -3.570312 8.140625 -4.34375 8.140625 -5.1875 C 8.140625 -6.050781 7.941406 -6.726562 7.546875 -7.21875 C 7.148438 -7.71875 6.585938 -7.96875 5.859375 -7.96875 C 5.203125 -7.96875 4.613281 -7.765625 4.09375 -7.359375 C 3.570312 -6.960938 3.15625 -6.421875 2.84375 -5.734375 C 2.539062 -5.046875 2.390625 -4.28125 2.390625 -3.4375 C 2.390625 -2.59375 2.601562 -1.914062 3.03125 -1.40625 C 3.457031 -0.894531 4.035156 -0.640625 4.765625 -0.640625 Z M 4.765625 -0.640625 "/></g></g></g><g fill="#a65e45" fill-opacity="1"><g transform="translate(153.876482, 271.917231)"><g><path d="M 8.6875 -8.609375 L 8.5 -6.265625 L 7.875 -6.1875 L 7.609375 -7.84375 C 7.535156 -7.863281 7.453125 -7.875 7.359375 -7.875 C 7.265625 -7.882812 7.175781 -7.890625 7.09375 -7.890625 L 6.5625 -7.890625 C 6.457031 -7.890625 6.320312 -7.890625 6.15625 -7.890625 C 5.988281 -7.890625 5.835938 -7.878906 5.703125 -7.859375 C 5.679688 -7.742188 5.644531 -7.59375 5.59375 -7.40625 C 5.550781 -7.226562 5.492188 -6.992188 5.421875 -6.703125 C 5.359375 -6.410156 5.285156 -6.050781 5.203125 -5.625 L 4.609375 -2.859375 C 4.503906 -2.390625 4.425781 -2.015625 4.375 -1.734375 C 4.332031 -1.460938 4.300781 -1.253906 4.28125 -1.109375 C 4.257812 -0.960938 4.238281 -0.84375 4.21875 -0.75 L 5.421875 -0.5625 L 5.28125 0 L 1.546875 0 L 1.625 -0.5625 L 2.890625 -0.75 C 2.910156 -0.84375 2.941406 -0.972656 2.984375 -1.140625 C 3.035156 -1.304688 3.085938 -1.523438 3.140625 -1.796875 C 3.203125 -2.078125 3.28125 -2.429688 3.375 -2.859375 L 3.96875 -5.625 C 4.101562 -6.269531 4.207031 -6.769531 4.28125 -7.125 C 4.363281 -7.488281 4.410156 -7.734375 4.421875 -7.859375 C 4.285156 -7.878906 4.132812 -7.890625 3.96875 -7.890625 C 3.8125 -7.890625 3.679688 -7.890625 3.578125 -7.890625 L 3.0625 -7.890625 C 2.96875 -7.890625 2.875 -7.882812 2.78125 -7.875 C 2.695312 -7.875 2.609375 -7.863281 2.515625 -7.84375 L 1.5625 -6.15625 L 0.90625 -6.25 L 1.71875 -8.609375 C 1.875 -8.597656 2.03125 -8.585938 2.1875 -8.578125 C 2.34375 -8.566406 2.5 -8.554688 2.65625 -8.546875 C 2.8125 -8.546875 2.960938 -8.546875 3.109375 -8.546875 L 7.28125 -8.546875 C 7.4375 -8.546875 7.585938 -8.546875 7.734375 -8.546875 C 7.890625 -8.554688 8.046875 -8.566406 8.203125 -8.578125 C 8.367188 -8.585938 8.53125 -8.597656 8.6875 -8.609375 Z M 8.6875 -8.609375 "/></g></g></g><g fill="#a65e45" fill-opacity="1"><g transform="translate(168.258281, 271.917231)"><g><path d="M 4.515625 0.125 C 3.773438 0.125 3.132812 -0.015625 2.59375 -0.296875 C 2.050781 -0.585938 1.632812 -0.988281 1.34375 -1.5 C 1.050781 -2.019531 0.90625 -2.632812 0.90625 -3.34375 C 0.90625 -4.0625 1.039062 -4.738281 1.3125 -5.375 C 1.582031 -6.019531 1.957031 -6.585938 2.4375 -7.078125 C 2.914062 -7.578125 3.46875 -7.96875 4.09375 -8.25 C 4.71875 -8.539062 5.382812 -8.6875 6.09375 -8.6875 C 6.8125 -8.6875 7.4375 -8.546875 7.96875 -8.265625 C 8.5 -7.992188 8.898438 -7.597656 9.171875 -7.078125 C 9.453125 -6.566406 9.59375 -5.96875 9.59375 -5.28125 C 9.59375 -4.5625 9.453125 -3.878906 9.171875 -3.234375 C 8.898438 -2.585938 8.523438 -2.007812 8.046875 -1.5 C 7.578125 -1 7.035156 -0.601562 6.421875 -0.3125 C 5.816406 -0.0195312 5.179688 0.125 4.515625 0.125 Z M 4.765625 -0.640625 C 5.410156 -0.640625 5.984375 -0.835938 6.484375 -1.234375 C 6.992188 -1.640625 7.394531 -2.1875 7.6875 -2.875 C 7.988281 -3.570312 8.140625 -4.34375 8.140625 -5.1875 C 8.140625 -6.050781 7.941406 -6.726562 7.546875 -7.21875 C 7.148438 -7.71875 6.585938 -7.96875 5.859375 -7.96875 C 5.203125 -7.96875 4.613281 -7.765625 4.09375 -7.359375 C 3.570312 -6.960938 3.15625 -6.421875 2.84375 -5.734375 C 2.539062 -5.046875 2.390625 -4.28125 2.390625 -3.4375 C 2.390625 -2.59375 2.601562 -1.914062 3.03125 -1.40625 C 3.457031 -0.894531 4.035156 -0.640625 4.765625 -0.640625 Z M 4.765625 -0.640625 "/></g></g></g><g fill="#a65e45" fill-opacity="1"><g transform="translate(184.518822, 271.917231)"><g><path d="M 4.953125 0.125 C 3.660156 0.125 2.660156 -0.179688 1.953125 -0.796875 C 1.253906 -1.410156 0.90625 -2.25 0.90625 -3.3125 C 0.90625 -4.03125 1.039062 -4.710938 1.3125 -5.359375 C 1.582031 -6.003906 1.96875 -6.578125 2.46875 -7.078125 C 2.976562 -7.578125 3.578125 -7.96875 4.265625 -8.25 C 4.953125 -8.539062 5.710938 -8.6875 6.546875 -8.6875 C 6.992188 -8.6875 7.441406 -8.644531 7.890625 -8.5625 C 8.335938 -8.488281 8.738281 -8.375 9.09375 -8.21875 L 8.765625 -6.328125 L 8.09375 -6.296875 L 7.984375 -7.5625 C 7.796875 -7.675781 7.550781 -7.765625 7.25 -7.828125 C 6.957031 -7.898438 6.640625 -7.9375 6.296875 -7.9375 C 5.691406 -7.9375 5.148438 -7.816406 4.671875 -7.578125 C 4.191406 -7.335938 3.78125 -7.003906 3.4375 -6.578125 C 3.101562 -6.160156 2.847656 -5.679688 2.671875 -5.140625 C 2.503906 -4.597656 2.421875 -4.035156 2.421875 -3.453125 C 2.421875 -2.578125 2.65625 -1.882812 3.125 -1.375 C 3.601562 -0.863281 4.265625 -0.609375 5.109375 -0.609375 C 5.265625 -0.609375 5.453125 -0.625 5.671875 -0.65625 C 5.898438 -0.695312 6.128906 -0.757812 6.359375 -0.84375 C 6.597656 -0.925781 6.816406 -1.035156 7.015625 -1.171875 L 6.5 -0.328125 L 6.8125 -1.859375 C 6.863281 -2.078125 6.90625 -2.273438 6.9375 -2.453125 C 6.976562 -2.628906 7.003906 -2.785156 7.015625 -2.921875 C 7.035156 -3.066406 7.050781 -3.1875 7.0625 -3.28125 L 6.125 -3.421875 L 6.265625 -4 L 9.078125 -4 L 9 -3.453125 L 8.328125 -3.296875 C 8.304688 -3.242188 8.273438 -3.125 8.234375 -2.9375 C 8.191406 -2.757812 8.144531 -2.535156 8.09375 -2.265625 C 8.03125 -1.921875 7.972656 -1.628906 7.921875 -1.390625 C 7.878906 -1.148438 7.835938 -0.898438 7.796875 -0.640625 C 7.523438 -0.484375 7.21875 -0.347656 6.875 -0.234375 C 6.539062 -0.117188 6.203125 -0.03125 5.859375 0.03125 C 5.515625 0.09375 5.210938 0.125 4.953125 0.125 Z M 4.953125 0.125 "/></g></g></g><g fill="#a65e45" fill-opacity="1"><g transform="translate(200.225935, 271.917231)"><g><path d="M 0.09375 0 L 0.171875 -0.546875 L 1.109375 -0.75 C 1.140625 -0.84375 1.171875 -0.972656 1.203125 -1.140625 C 1.242188 -1.304688 1.296875 -1.523438 1.359375 -1.796875 C 1.421875 -2.078125 1.503906 -2.429688 1.609375 -2.859375 L 2.1875 -5.625 C 2.332031 -6.28125 2.429688 -6.773438 2.484375 -7.109375 C 2.546875 -7.441406 2.582031 -7.675781 2.59375 -7.8125 L 1.75 -8.015625 L 1.890625 -8.546875 L 4.90625 -8.546875 C 5.78125 -8.546875 6.425781 -8.398438 6.84375 -8.109375 C 7.269531 -7.828125 7.484375 -7.382812 7.484375 -6.78125 C 7.484375 -6.28125 7.328125 -5.816406 7.015625 -5.390625 C 6.703125 -4.972656 6.273438 -4.632812 5.734375 -4.375 C 5.203125 -4.125 4.617188 -4 3.984375 -4 L 2.890625 -4 L 3 -4.640625 L 4 -4.640625 C 4.675781 -4.640625 5.207031 -4.828125 5.59375 -5.203125 C 5.976562 -5.585938 6.171875 -6.078125 6.171875 -6.671875 C 6.171875 -7.109375 6.039062 -7.425781 5.78125 -7.625 C 5.519531 -7.820312 5.132812 -7.921875 4.625 -7.921875 L 3.90625 -7.921875 C 3.894531 -7.898438 3.878906 -7.847656 3.859375 -7.765625 C 3.835938 -7.691406 3.804688 -7.570312 3.765625 -7.40625 C 3.734375 -7.238281 3.6875 -7.007812 3.625 -6.71875 C 3.5625 -6.4375 3.476562 -6.070312 3.375 -5.625 L 2.796875 -2.859375 C 2.734375 -2.535156 2.675781 -2.253906 2.625 -2.015625 C 2.582031 -1.773438 2.546875 -1.570312 2.515625 -1.40625 C 2.484375 -1.25 2.457031 -1.113281 2.4375 -1 C 2.425781 -0.894531 2.414062 -0.8125 2.40625 -0.75 L 3.21875 -0.546875 L 3.078125 0 Z M 7 0.140625 C 6.582031 0.140625 6.226562 0.0625 5.9375 -0.09375 C 5.65625 -0.25 5.398438 -0.5 5.171875 -0.84375 C 4.953125 -1.195312 4.734375 -1.671875 4.515625 -2.265625 L 3.8125 -4.21875 L 4.890625 -4.46875 L 5.96875 -2.15625 C 6.15625 -1.75 6.335938 -1.421875 6.515625 -1.171875 C 6.691406 -0.929688 6.875 -0.753906 7.0625 -0.640625 C 7.25 -0.535156 7.46875 -0.46875 7.71875 -0.4375 L 7.59375 0.09375 C 7.507812 0.101562 7.414062 0.113281 7.3125 0.125 C 7.207031 0.132812 7.101562 0.140625 7 0.140625 Z M 7 0.140625 "/></g></g></g><g fill="#a65e45" fill-opacity="1"><g transform="translate(214.753373, 271.917231)"><g><path d="M -0.609375 0 L -0.53125 -0.546875 L 0.25 -0.75 L 4.84375 -8.328125 L 5.765625 -8.8125 L 7.25 -0.75 L 7.921875 -0.546875 L 7.78125 0 L 4.875 0 L 4.96875 -0.546875 L 5.90625 -0.75 L 5.515625 -2.921875 L 5.453125 -3.359375 L 4.734375 -7.34375 L 5.078125 -7.546875 L 2.671875 -3.359375 L 2.40625 -2.921875 L 1.171875 -0.75 L 2.015625 -0.546875 L 1.875 0 Z M 2 -2.703125 L 2.140625 -3.46875 C 2.328125 -3.457031 2.582031 -3.445312 2.90625 -3.4375 C 3.238281 -3.425781 3.632812 -3.421875 4.09375 -3.421875 C 4.5625 -3.421875 4.957031 -3.425781 5.28125 -3.4375 C 5.601562 -3.445312 5.851562 -3.457031 6.03125 -3.46875 L 5.875 -2.703125 C 5.53125 -2.703125 5.195312 -2.707031 4.875 -2.71875 C 4.550781 -2.726562 4.242188 -2.734375 3.953125 -2.734375 C 3.660156 -2.734375 3.351562 -2.726562 3.03125 -2.71875 C 2.707031 -2.707031 2.363281 -2.703125 2 -2.703125 Z M 2 -2.703125 "/></g></g></g><g fill="#a65e45" fill-opacity="1"><g transform="translate(229.499277, 271.917231)"><g><path d="M 0.15625 0 L 0.25 -0.546875 L 1.109375 -0.75 C 1.160156 -0.882812 1.207031 -1.050781 1.25 -1.25 C 1.300781 -1.445312 1.351562 -1.679688 1.40625 -1.953125 C 1.46875 -2.222656 1.535156 -2.523438 1.609375 -2.859375 L 2.203125 -5.625 C 2.335938 -6.238281 2.4375 -6.722656 2.5 -7.078125 C 2.5625 -7.429688 2.597656 -7.675781 2.609375 -7.8125 L 1.765625 -8.015625 L 1.90625 -8.546875 L 4.78125 -8.546875 C 5.65625 -8.546875 6.328125 -8.367188 6.796875 -8.015625 C 7.273438 -7.660156 7.515625 -7.160156 7.515625 -6.515625 C 7.515625 -6.078125 7.421875 -5.671875 7.234375 -5.296875 C 7.054688 -4.921875 6.800781 -4.59375 6.46875 -4.3125 C 6.144531 -4.039062 5.765625 -3.828125 5.328125 -3.671875 C 4.890625 -3.515625 4.414062 -3.4375 3.90625 -3.4375 C 3.707031 -3.4375 3.515625 -3.445312 3.328125 -3.46875 C 3.148438 -3.5 2.953125 -3.535156 2.734375 -3.578125 L 2.921875 -4.3125 C 3.117188 -4.25 3.296875 -4.203125 3.453125 -4.171875 C 3.617188 -4.148438 3.789062 -4.140625 3.96875 -4.140625 C 4.6875 -4.140625 5.242188 -4.335938 5.640625 -4.734375 C 6.035156 -5.128906 6.234375 -5.679688 6.234375 -6.390625 C 6.234375 -6.890625 6.085938 -7.269531 5.796875 -7.53125 C 5.503906 -7.789062 5.082031 -7.921875 4.53125 -7.921875 L 3.921875 -7.921875 C 3.898438 -7.859375 3.863281 -7.703125 3.8125 -7.453125 C 3.757812 -7.210938 3.695312 -6.929688 3.625 -6.609375 C 3.550781 -6.285156 3.472656 -5.957031 3.390625 -5.625 L 2.828125 -2.859375 C 2.691406 -2.234375 2.59375 -1.757812 2.53125 -1.4375 C 2.476562 -1.125 2.441406 -0.894531 2.421875 -0.75 L 3.5625 -0.5625 L 3.40625 0 Z M 0.15625 0 "/></g></g></g><g fill="#a65e45" fill-opacity="1"><g transform="translate(243.254829, 271.917231)"><g><path d="M 2.71875 -3.96875 L 2.921875 -4.828125 C 3.191406 -4.816406 3.515625 -4.804688 3.890625 -4.796875 C 4.265625 -4.785156 4.71875 -4.78125 5.25 -4.78125 C 5.789062 -4.78125 6.25 -4.785156 6.625 -4.796875 C 7.007812 -4.804688 7.332031 -4.816406 7.59375 -4.828125 L 7.421875 -3.96875 C 7.117188 -3.988281 6.796875 -4 6.453125 -4 C 6.109375 -4.007812 5.65625 -4.015625 5.09375 -4.015625 C 4.53125 -4.015625 4.070312 -4.007812 3.71875 -4 C 3.363281 -4 3.03125 -3.988281 2.71875 -3.96875 Z M 0.078125 0 L 0.15625 -0.546875 L 1.09375 -0.75 C 1.125 -0.84375 1.15625 -0.972656 1.1875 -1.140625 C 1.226562 -1.304688 1.28125 -1.523438 1.34375 -1.796875 C 1.40625 -2.078125 1.488281 -2.429688 1.59375 -2.859375 L 2.171875 -5.625 C 2.316406 -6.28125 2.414062 -6.773438 2.46875 -7.109375 C 2.53125 -7.441406 2.566406 -7.675781 2.578125 -7.8125 L 1.734375 -8.015625 L 1.875 -8.546875 L 4.9375 -8.546875 L 4.859375 -8.015625 L 3.90625 -7.8125 C 3.875 -7.6875 3.8125 -7.453125 3.71875 -7.109375 C 3.625 -6.765625 3.507812 -6.269531 3.375 -5.625 L 2.796875 -2.859375 C 2.703125 -2.390625 2.625 -2.015625 2.5625 -1.734375 C 2.507812 -1.460938 2.472656 -1.253906 2.453125 -1.109375 C 2.441406 -0.960938 2.429688 -0.84375 2.421875 -0.75 L 3.265625 -0.546875 L 3.125 0 Z M 5.359375 0 L 5.453125 -0.546875 L 6.375 -0.75 C 6.40625 -0.84375 6.441406 -0.972656 6.484375 -1.140625 C 6.523438 -1.304688 6.578125 -1.523438 6.640625 -1.796875 C 6.703125 -2.078125 6.78125 -2.429688 6.875 -2.859375 L 7.46875 -5.625 C 7.601562 -6.28125 7.695312 -6.773438 7.75 -7.109375 C 7.8125 -7.441406 7.847656 -7.675781 7.859375 -7.8125 L 7.015625 -8.015625 L 7.15625 -8.546875 L 10.21875 -8.546875 L 10.125 -8.015625 L 9.1875 -7.8125 C 9.164062 -7.6875 9.109375 -7.453125 9.015625 -7.109375 C 8.921875 -6.765625 8.800781 -6.269531 8.65625 -5.625 L 8.078125 -2.859375 C 7.972656 -2.390625 7.894531 -2.015625 7.84375 -1.734375 C 7.800781 -1.460938 7.765625 -1.253906 7.734375 -1.109375 C 7.710938 -0.960938 7.695312 -0.84375 7.6875 -0.75 L 8.546875 -0.546875 L 8.390625 0 Z M 5.359375 0 "/></g></g></g><g fill="#a65e45" fill-opacity="1"><g transform="translate(259.311475, 271.917231)"><g><path d="M 8.15625 -7.8125 L 4.21875 -3.1875 L 4.75 -4.1875 L 4.46875 -2.859375 C 4.40625 -2.546875 4.347656 -2.269531 4.296875 -2.03125 C 4.253906 -1.789062 4.21875 -1.585938 4.1875 -1.421875 C 4.164062 -1.265625 4.144531 -1.128906 4.125 -1.015625 C 4.113281 -0.898438 4.101562 -0.8125 4.09375 -0.75 L 5.078125 -0.546875 L 4.921875 0 L 1.625 0 L 1.71875 -0.546875 L 2.78125 -0.75 C 2.800781 -0.820312 2.820312 -0.910156 2.84375 -1.015625 C 2.875 -1.128906 2.910156 -1.265625 2.953125 -1.421875 C 2.992188 -1.578125 3.035156 -1.773438 3.078125 -2.015625 C 3.128906 -2.253906 3.191406 -2.535156 3.265625 -2.859375 L 3.5625 -4.1875 L 3.640625 -3.1875 L 1.734375 -7.8125 L 1.03125 -8.015625 L 1.1875 -8.546875 L 4.15625 -8.546875 L 4.0625 -8.015625 L 3.125 -7.8125 L 4.546875 -4.359375 L 4.359375 -4.359375 L 7.15625 -7.8125 L 6.171875 -8.015625 L 6.328125 -8.546875 L 9.015625 -8.546875 L 8.953125 -8.015625 Z M 8.15625 -7.8125 "/></g></g></g></svg>