<svg id="Layer_1" xmlns="http://www.w3.org/2000/svg" viewBox="0 0 714.59 378.57"><rect fill="#FFF" x="143.64" y="96.08" width="95.92" height="93.2" rx="4.54"/><path fill="#FFF" d="M33.7,169.07s1.55-54.43,52.88-59.1,276.84,0,276.84,0,47.44,4.67,52.1,59.1,0,252,0,252-2.33,18.66,14.78,20.22,63,0,63,0,18.84,0,18.84-20V364.49s-3.51-18.11,11.35-18.11h72.95s12.16-2.16,12.16,14.59v65.66S608.32,441,621,440.68s68.37,0,68.37,0,13.51-2.7,13.51-16.21V176.15s1.35-21.08-16.22-20.81-61.6,0-61.6,0-16.49-.81-16.49,13v67.56s-.81,14-17,14.32-65.12,0-65.12,0-14.59,2.16-14.86-13,0-68.63,0-68.63,7.29-59.45,55.66-59.45H695.33s53,8.11,53,57v267s-6.48,53.5-53.23,53.23-269.4,0-269.4,0-56.74-8.65-56.74-50.8V175.88s-.81-21.08-20.81-20.81-251.29,0-251.29,0-16.21-1.35-16.21,16.76V425s2.7,15.67,16.21,15.4,66.2,0,66.2,0,10.27-3.78,11.08-11.34,0-68.37,0-68.37-.54-14.32,15.94-14.59,70.26,0,70.26,0,10.53-.81,10.53,16.21v72.42s-10.8,51.34-53.5,51.61-130.78,0-130.78,0-53-11.62-52.85-58.1S33.7,169.07,33.7,169.07Z" transform="translate(-33.7 -107.9)"/></svg>