<svg xmlns="http://www.w3.org/2000/svg" xmlns:xlink="http://www.w3.org/1999/xlink" width="500" zoomAndPan="magnify" viewBox="0 0 375 374.999991" height="500" preserveAspectRatio="xMidYMid meet" version="1.0"><path fill="#d4592f" d="M 186.003906 141.753906 C 178.304688 135.085938 169.347656 129.96875 159.839844 126.625 C 160.460938 119.140625 159.949219 109.917969 156.261719 100.691406 C 155.324219 98.347656 152.796875 97.054688 150.347656 97.671875 C 150.347656 97.671875 143.511719 99.34375 135.273438 104.359375 C 135.167969 104.125 135.054688 103.894531 134.949219 103.660156 C 132.183594 97.890625 128.210938 92.996094 122.820312 90.304688 C 120.875 89.328125 118.523438 89.710938 116.984375 91.246094 C 116.984375 91.246094 97.898438 110.402344 93.265625 134.660156 C 74.75 148.015625 61.238281 172.574219 61.238281 211.082031 C 61.238281 282.949219 107.445312 312.308594 113.609375 315.902344 C 122.375 324.363281 137.847656 330.277344 155.71875 333.15625 C 182.101562 337.414062 213.667969 335.261719 234.875 326.777344 C 287.53125 305.726562 313.832031 254.730469 313.832031 211.390625 C 313.832031 174.929688 306.238281 163.804688 299.003906 131.273438 C 285.3125 69.667969 311.289062 53.746094 311.289062 53.746094 C 312.992188 52.773438 313.976562 50.898438 313.816406 48.949219 C 313.65625 46.996094 312.375 45.308594 310.539062 44.625 C 310.539062 44.625 291.316406 37.476562 267.742188 38.035156 C 243.726562 38.605469 215.335938 47.089844 197.632812 78.429688 C 188.121094 95.269531 185.535156 117.519531 186.003906 141.753906 Z M 203.792969 248.953125 C 203.730469 258.230469 203.089844 266.9375 201.566406 274.828125 C 199.109375 287.582031 194.355469 298.273438 186.417969 306.085938 C 177.214844 315.144531 163.523438 320.515625 143.40625 320.167969 C 147.769531 321.398438 152.453125 322.402344 157.324219 323.1875 C 181.917969 327.152344 211.355469 325.308594 231.128906 317.402344 C 279.507812 298.050781 303.726562 251.222656 303.726562 211.390625 C 303.726562 175.910156 296.179688 165.117188 289.144531 133.464844 C 278.484375 85.503906 290.152344 61.902344 298.773438 51.675781 C 291.617188 49.898438 280.46875 47.839844 267.980469 48.136719 C 246.929688 48.636719 221.949219 55.925781 206.429688 83.394531 C 196.390625 101.171875 195.121094 125.515625 196.460938 151.609375 C 218.816406 171.730469 231.605469 171.339844 231.605469 171.339844 L 231.605469 171.347656 C 232.386719 171.121094 233.230469 171.082031 234.074219 171.261719 C 236.507812 171.792969 238.148438 174 238.046875 176.410156 C 238.128906 178.609375 237.886719 185.742188 232.375 194.035156 C 227.679688 201.097656 218.902344 209.328125 202.167969 215.535156 C 203.140625 226.773438 203.8125 237.675781 203.796875 247.910156 C 203.8125 248.066406 203.816406 248.222656 203.820312 248.378906 C 203.820312 248.574219 203.8125 248.765625 203.792969 248.953125 Z M 168.90625 225.425781 C 122.582031 242.402344 105.808594 275.738281 120.15625 307.390625 C 149.972656 313.207031 168.386719 309.660156 179.328125 298.890625 C 185.898438 292.425781 189.609375 283.46875 191.644531 272.917969 C 192.824219 266.8125 193.433594 260.1875 193.636719 253.183594 C 187.347656 252.425781 182.53125 250.21875 178.878906 247.308594 C 171.621094 241.515625 168.988281 232.703125 168.90625 225.425781 Z M 192.824219 208.019531 C 180.113281 209.535156 163.765625 208.890625 142.757812 204.394531 C 113.421875 198.105469 89.101562 218.191406 87.171875 245.84375 C 86.132812 260.792969 91.554688 277.757812 105.679688 294.152344 C 100.582031 261.3125 122.777344 228.808594 173.398438 213.253906 C 173.621094 213.167969 173.847656 213.101562 174.082031 213.046875 C 177.683594 211.953125 181.421875 210.949219 185.300781 210.039062 C 187.972656 209.410156 190.480469 208.730469 192.824219 208.019531 Z M 127.773438 112.929688 C 127.230469 111.253906 126.589844 109.597656 125.832031 108.015625 C 124.644531 105.539062 123.199219 103.230469 121.324219 101.46875 C 116.15625 107.488281 105.425781 121.675781 102.882812 138.359375 C 102.667969 139.757812 101.878906 141 100.703125 141.792969 C 83.441406 153.378906 71.339844 175.777344 71.339844 211.082031 C 71.339844 226.097656 73.523438 239.097656 76.953125 250.253906 C 76.929688 248.53125 76.976562 246.824219 77.09375 245.140625 C 79.449219 211.402344 109.082031 186.847656 144.875 194.515625 C 199.871094 206.296875 219.003906 190.132812 225.25 180.851562 C 217.734375 179.21875 205.613281 173.863281 188.664062 158.207031 C 188.261719 157.925781 187.894531 157.585938 187.585938 157.203125 C 186.054688 155.761719 184.488281 154.246094 182.886719 152.644531 C 174.742188 144.5 164.578125 138.5625 153.714844 135.230469 C 153.675781 135.226562 153.628906 135.222656 153.585938 135.21875 C 153.070312 135.136719 152.585938 134.984375 152.136719 134.769531 C 146.703125 133.242188 141.117188 132.363281 135.535156 132.191406 C 132.992188 132.109375 130.90625 130.15625 130.664062 127.625 C 130.316406 124.011719 129.632812 119.160156 128.226562 114.367188 C 127.996094 113.902344 127.851562 113.417969 127.773438 112.929688 Z M 192.296875 218.6875 C 190.78125 219.097656 189.226562 219.488281 187.613281 219.867188 C 184.699219 220.554688 181.875 221.296875 179.132812 222.089844 C 178.097656 226.804688 179.273438 234.695312 185.183594 239.410156 C 187.347656 241.136719 190.140625 242.390625 193.671875 242.980469 C 193.519531 235.195312 192.996094 227.046875 192.296875 218.6875 Z M 149.902344 123.824219 C 150.125 119.339844 149.816406 114.238281 148.402344 109 C 145.816406 110.054688 142.335938 111.722656 138.621094 114.195312 C 139.328125 117.035156 139.839844 119.816406 140.203125 122.351562 C 143.457031 122.640625 146.695312 123.132812 149.902344 123.824219 Z M 149.902344 123.824219 " fill-opacity="1" fill-rule="evenodd"/></svg>