<?xml version="1.0" encoding="UTF-8"?>
<!-- Generator: Adobe Illustrator 20.1.0, SVG Export Plug-In . SVG Version: 6.00 Build 0)  -->
<!DOCTYPE svg PUBLIC "-//W3C//DTD SVG 1.1//EN" "http://www.w3.org/Graphics/SVG/1.1/DTD/svg11.dtd">
<svg version="1.1" id="Layer_1" xmlns="http://www.w3.org/2000/svg" xmlns:xlink="http://www.w3.org/1999/xlink" x="0px" y="0px" viewBox="0 0 55 55" enable-background="new 0 0 55 55" xml:space="preserve">
<g>
	<path fill="#17a1dc" d="M18.8,33c-0.4,0-0.7-0.3-0.7-0.7V26h-4.8c-0.2,0-0.4,0.2-0.4,0.4s0.2,0.4,0.4,0.4h0.2V31   c0,0.1,0,0.5-0.2,0.9c-1.2,2.4-3.5,6.6-3.5,6.6c-0.3,0.6-0.4,1.3-0.3,1.9c0.2,0.5,0.5,0.9,1.4,0.9H24c0.9,0,1.3-0.4,1.4-0.9   c0.2-0.5,0-1.2-0.3-1.9c0,0-2.3-4.1-3.5-6.6c-0.2-0.5-0.2-0.8-0.2-0.9v-4.2h0.2c0.2,0,0.4-0.2,0.4-0.4S21.8,26,21.6,26h-1.4v6.2   c0,0.4-0.3,0.7-0.7,0.7H18.8z M16.7,28.7c0.3,0,0.5,0.2,0.5,0.5c0,0.3-0.2,0.5-0.5,0.5c-0.3,0-0.5-0.2-0.5-0.5   C16.2,28.9,16.5,28.7,16.7,28.7z M15.8,31.8c0.5,0,1,0.4,1,1c0,0.5-0.4,1-1,1c-0.5,0-1-0.4-1-1C14.9,32.3,15.3,31.8,15.8,31.8z    M22.6,34.8c0.3,0.8,1.4,3.4,1.6,4c0.3,0.6,0.8,1.6-0.9,1.6s-10.9,0-12,0s-0.7-0.9-0.5-1.6c0.2-0.6,0.9-3.5,2-3.5   c0,0,3.3,0.2,5.1-0.7C19.7,33.7,22.1,33.6,22.6,34.8z"/>
	<circle fill="#17a1dc" cx="17.5" cy="38" r="0.5"/>
	<path fill="#17a1dc" d="M19.4,23.1h-0.6c0,0,0,0,0,0v2.4h0.7L19.4,23.1C19.5,23.1,19.5,23.1,19.4,23.1z"/>
	<circle fill="#17a1dc" cx="19.8" cy="36.2" r="1"/>
	<path fill="#17a1dc" d="M40.5,29.9c0.1,0.1,0.1,0.2,0.1,0.3v1.1h0.8v-1.1c0-0.1,0-0.2,0.1-0.3l1.5-2.4h-4L40.5,29.9z"/>
	<path fill="#17a1dc" d="M18.8,32.3h0.6c0,0,0,0,0,0V26h-0.7L18.8,32.3C18.8,32.2,18.8,32.3,18.8,32.3z"/>
	<rect x="42.4" y="16.1" fill="#17a1dc" width="0.9" height="0.9"/>
	<rect x="39" y="16.1" fill="#17a1dc" width="0.9" height="0.9"/>
	<path fill="#17a1dc" d="M27.5,0C12.3,0,0,12.3,0,27.5S12.3,55,27.5,55C42.7,55,55,42.7,55,27.5S42.7,0,27.5,0z M19.8,14.3   c0.3,0,0.5,0.2,0.5,0.5s-0.2,0.5-0.5,0.5c-0.3,0-0.5-0.2-0.5-0.5S19.6,14.3,19.8,14.3z M16.5,20.2c0.5,0,1,0.4,1,1c0,0.5-0.4,1-1,1   c-0.5,0-1-0.4-1-1C15.5,20.7,16,20.2,16.5,20.2z M11.8,19.8c0.3,0,0.5,0.2,0.5,0.5s-0.2,0.5-0.5,0.5c-0.3,0-0.5-0.2-0.5-0.5   S11.6,19.8,11.8,19.8z M43.7,27.6l-1.6,2.6v1.2c0,0.3-0.2,0.5-0.5,0.5h-0.2v4.4c0,1.3-0.3,2.2-1,2.8c-0.6,0.6-1.4,0.7-1.7,0.7   c-0.1,0-0.1,0-0.1,0l-6.2,0c-0.9,0-1.6-0.3-2.1-0.8c-0.9-1-0.8-2.5-0.8-2.6l0-14c0-2.3-1.5-2.4-1.6-2.4l-6.7,0   c-0.5,0-0.9,0.1-1.1,0.4c-0.5,0.6-0.6,1.5-0.5,1.9c0.4,0,0.7,0.3,0.7,0.7v2.4h1.4c0.5,0,0.8,0.4,0.8,0.8c0,0.4-0.3,0.7-0.6,0.8V31   c0,0.1,0,0.3,0.2,0.7c1.2,2.4,3.5,6.6,3.5,6.6l0,0l0,0c0.4,0.7,0.5,1.5,0.3,2.2c-0.2,0.7-0.8,1.2-1.8,1.2H10.9   c-1,0-1.6-0.5-1.8-1.2c-0.2-0.7,0-1.5,0.3-2.2l0,0l0,0c0,0,2.3-4.1,3.5-6.6c0.2-0.4,0.2-0.6,0.2-0.7v-3.8c-0.4-0.1-0.6-0.4-0.6-0.8   c0-0.5,0.4-0.8,0.8-0.8h4.8v-2.4c0-0.4,0.3-0.7,0.7-0.7c0-0.3,0-1.5,0.7-2.3c0.4-0.4,1-0.7,1.6-0.7h6.7c0,0,2.3,0.1,2.3,3v14   c0,0-0.1,1.3,0.6,2.1c0.4,0.4,0.9,0.6,1.6,0.6h6.3c0.1,0,0.7,0,1.3-0.5c0.5-0.5,0.8-1.2,0.8-2.3V32h-0.2c-0.3,0-0.5-0.2-0.5-0.5   v-1.2l-1.6-2.6c-0.1-0.2-0.1-0.4,0-0.5s0.3-0.3,0.5-0.3h4.5c0.2,0,0.4,0.1,0.5,0.3C43.9,27.3,43.9,27.5,43.7,27.6z M37.4,23.3   c0-0.3,0.2-0.5,0.5-0.5c0.3,0,0.5,0.2,0.5,0.5c0,0.3-0.2,0.5-0.5,0.5C37.6,23.8,37.4,23.6,37.4,23.3z M41.4,25c0-0.5,0.4-1,1-1   c0.5,0,1,0.4,1,1c0,0.5-0.4,1-1,1C41.9,26,41.4,25.5,41.4,25z M46,19.5c0,0.1-0.1,0.2-0.2,0.2H45c-0.1,0-0.2-0.1-0.2-0.2V18h-0.4   v1.5c0,0.1-0.1,0.2-0.2,0.2h-0.6v0.6c0,0.1-0.1,0.2-0.2,0.2h-1.7c-0.1,0-0.2-0.1-0.2-0.2v-0.9c0-0.1,0.1-0.2,0.2-0.2H43v-0.4h-3.8   v0.4h1.5c0.1,0,0.2,0.1,0.2,0.2v0.9c0,0.1-0.1,0.2-0.2,0.2H39c-0.1,0-0.2-0.1-0.2-0.2v-0.6h-0.6c-0.1,0-0.2-0.1-0.2-0.2V18h-0.4   v1.5c0,0.1-0.1,0.2-0.2,0.2h-0.9c-0.1,0-0.2-0.1-0.2-0.2V17c0-0.1,0.1-0.2,0.2-0.2h0.6v-0.6c0-0.1,0.1-0.2,0.2-0.2h0.6v-0.6   c0-0.1,0.1-0.2,0.2-0.2h0.6v-0.4h-0.6c-0.1,0-0.2-0.1-0.2-0.2v-0.9c0-0.1,0.1-0.2,0.2-0.2H39c0.1,0,0.2,0.1,0.2,0.2v0.6h0.6   c0.1,0,0.2,0.1,0.2,0.2V15h2.1v-0.6c0-0.1,0.1-0.2,0.2-0.2H43v-0.6c0-0.1,0.1-0.2,0.2-0.2h0.9c0.1,0,0.2,0.1,0.2,0.2v0.9   c0,0.1-0.1,0.2-0.2,0.2h-0.6V15h0.6c0.1,0,0.2,0.1,0.2,0.2v0.6H45c0.1,0,0.2,0.1,0.2,0.2v0.6h0.6c0.1,0,0.2,0.1,0.2,0.2V19.5z"/>
</g>
</svg>